# xmcd
#
# Track frame offsets:
#	150
#	18383
#	36576
#	55926
#	83161
#	98627
#	119542
#	136652
#
# Disc length: 2104 seconds
#
# Revision: 0
# Processed by: cddbd v1.5.2PL0 Copyright (c) Steve Scherf et al.
# Submitted via: EasyCDDAExtractor 12.1.0.1
#
DISCID=63083608
DTITLE=Cece Winans - Songs of Emotional Healing
DYEAR=2010
DGENRE=Gospel
TTITLE0=It's Gonna Get Better
TTITLE1=The Healing Part
TTITLE2=What About You
TTITLE3=You Are Loved
TTITLE4=He's Concerned
TTITLE5=His Strength Is Perfect
TTITLE6=He's Always There
TTITLE7=Comforter
EXTD=
EXTT0=
EXTT1=
EXTT2=
EXTT3=
EXTT4=
EXTT5=
EXTT6=
EXTT7=
PLAYORDER=
